<svg xmlns="http://www.w3.org/2000/svg" viewBox="0 0 438.11 438.11"><defs><style>.cls-1{fill:#ffdd31;}</style></defs><title>Asset 15</title><g id="Layer_2" data-name="Layer 2"><g id="Full_Logo" data-name="Full Logo"><path class="cls-1" d="M219.05,438.11a219.05,219.05,0,0,1-154.89-374A219.05,219.05,0,1,1,374,374,217.63,217.63,0,0,1,219.05,438.11Zm0-424.11C106,14,14,106,14,219.05s92,205.06,205.05,205.06,205.06-92,205.06-205.06S332.12,14,219.05,14Z"/><g id="Logo"><path class="cls-1" d="M80,258.18a7.21,7.21,0,0,1,1.54,4.33A4.89,4.89,0,0,1,80,266.22,5.45,5.45,0,0,1,76,267.69a9,9,0,0,1-3.49-.84q-3.51-2.52-7.84-5.73t-8.81-6.58q-4.49-3.36-8.81-6.64t-8-5.81a6.55,6.55,0,0,1-2.23-4.61,6.13,6.13,0,0,1,2.65-4.9l3.15-2.52q2.45-2,6-4.61T56,219.71q3.84-3.08,7.34-5.74t6-4.68c1.68-1.35,2.7-2.17,3.08-2.45a9,9,0,0,1,3.07-.7,5.3,5.3,0,0,1,3.92,1.54,5.14,5.14,0,0,1,1.54,3.78,7.27,7.27,0,0,1-1.82,4.61c-1.59,1.31-3.59,2.89-6,4.76s-5,3.82-7.56,5.87-5.13,4-7.55,5.88-4.43,3.45-6,4.76l6.51,4.82q3.7,2.73,7.48,5.6t7.49,5.59C75.93,255.17,78.09,256.78,80,258.18Z"/><path class="cls-1" d="M358.83,258.18c1.87-1.4,4-3,6.51-4.83s5-3.68,7.48-5.59,5-3.78,7.48-5.6l6.51-4.82c-1.59-1.31-3.59-2.89-6-4.76s-4.94-3.82-7.55-5.88-5.13-4-7.55-5.87-4.43-3.45-6-4.76a7.27,7.27,0,0,1-1.82-4.61,5.14,5.14,0,0,1,1.54-3.78,5.3,5.3,0,0,1,3.92-1.54,9,9,0,0,1,3.07.7,36.61,36.61,0,0,1,3.15,2.45c1.63,1.35,3.62,2.91,6,4.68s4.78,3.69,7.34,5.74,5,4,7.35,5.74,4.31,3.31,5.94,4.61l3.15,2.52a6.14,6.14,0,0,1,2.66,4.9,6.57,6.57,0,0,1-2.24,4.61q-3.51,2.52-7.91,5.81c-2.93,2.19-5.9,4.4-8.88,6.64s-5.92,4.43-8.81,6.58-5.5,4.05-7.83,5.73a8.37,8.37,0,0,1-3.5.84,5.45,5.45,0,0,1-3.92-1.47,4.89,4.89,0,0,1-1.54-3.71A7.21,7.21,0,0,1,358.83,258.18Z"/><path class="cls-1" d="M269.84,267.34c-4.32-.75-8-3-11.42-5.67l-.95-.77q.5,4.94.5,10a97.65,97.65,0,0,1-28.81,69.53l-10.1,10.11-10.14-10.13a98.15,98.15,0,0,1-28.35-78.22,17.76,17.76,0,0,1-9.69,4.78,18.74,18.74,0,0,1-3.28.23A110.67,110.67,0,0,0,200,349.31l14.36,14.36a6.68,6.68,0,0,0,9.45,0l14.34-14.33a110.75,110.75,0,0,0,32.4-81.91C270.29,267.41,270.06,267.38,269.84,267.34Z"/><path class="cls-1" d="M344,149.47l-20.16-2.13a110.36,110.36,0,0,0-67.42,14.49,11.82,11.82,0,0,1,3,3.08,9.71,9.71,0,0,1,.43,9.59,97.63,97.63,0,0,1,62.72-14.57l14.21,1.5-1.5,14.25a97.67,97.67,0,0,1-5.91,24.7A10.85,10.85,0,0,1,340,202.94a8.58,8.58,0,0,1,1.33,1.55A111.16,111.16,0,0,0,347.8,177l2.13-20.19A6.69,6.69,0,0,0,344,149.47Z"/><path class="cls-1" d="M91.48,149.47l20.15-2.13a110.39,110.39,0,0,1,67.43,14.49,11.66,11.66,0,0,0-2.95,3.08,9.74,9.74,0,0,0-.44,9.59A97.6,97.6,0,0,0,113,159.93l-14.21,1.5,1.5,14.25a97.67,97.67,0,0,0,5.91,24.7,10.85,10.85,0,0,0-10.66,2.56,8.2,8.2,0,0,0-1.33,1.55A110.72,110.72,0,0,1,87.66,177l-2.13-20.19A6.67,6.67,0,0,1,91.48,149.47Z"/><path class="cls-1" d="M83.87,214a104.44,104.44,0,0,1,92.38-.35,11.18,11.18,0,0,1-.81-7.52,9.38,9.38,0,0,1,2.39-4.33A115.91,115.91,0,0,0,78.22,204C84,204.05,85.83,210,83.87,214Z"/><path class="cls-1" d="M209.92,241.6a27.5,27.5,0,0,1-5.51-2.57,4.23,4.23,0,0,1-.51.61h0A103.85,103.85,0,0,1,84.14,259.2c2.38,3.69.91,9.86-4.41,10.48A115.35,115.35,0,0,0,212,247.7h0a15.66,15.66,0,0,0,3.81-6.16A9.44,9.44,0,0,1,209.92,241.6Z"/><path class="cls-1" d="M267,204a9.19,9.19,0,0,1-1,8,104.45,104.45,0,0,1,88.82,2c-2-3.94-.08-9.9,5.65-9.91a115.92,115.92,0,0,0-95.65-4A11.63,11.63,0,0,1,267,204Z"/><path class="cls-1" d="M354.47,259.2a103.83,103.83,0,0,1-118.8-18.62,10.79,10.79,0,0,1-9.72,2.29,9.14,9.14,0,0,1-3.14-1.44,15.66,15.66,0,0,0,3.84,6.27h0a115.35,115.35,0,0,0,132.23,22C353.56,269.06,352.09,262.89,354.47,259.2Z"/><path class="cls-1" d="M227.85,245.25H210.27A40.29,40.29,0,0,1,170,205l0-.5,5.82-71.41c-4.31-3.59-6.59-6.81-5.54-10.64a7.84,7.84,0,0,1,1.44-2.81,8,8,0,0,1,8.54-2.62l15.46,4.6a10.15,10.15,0,0,0,5.78,0l11.07-3.33a22.2,22.2,0,0,1,12.89,0l10.88,3.3a10.07,10.07,0,0,0,5.78,0l15.65-4.6a8,8,0,0,1,8.52,2.62,7.75,7.75,0,0,1,1.44,2.81c1.05,3.84-1.23,7-5.54,10.61l5.85,71.69V205A40.28,40.28,0,0,1,227.85,245.25Zm-45.63-40a28.08,28.08,0,0,0,28.05,27.81h17.58a28.06,28.06,0,0,0,28-27.8l-6-73.19-4.31,1.27a22.26,22.26,0,0,1-12.76-.05L222,130a10.1,10.1,0,0,0-5.84,0l-11.07,3.33a22.18,22.18,0,0,1-12.76,0l-4.12-1.22Z"/></g></g></g></svg>