<svg xmlns="http://www.w3.org/2000/svg" viewBox="0 0 924.13 960.72"><defs><style>.cls-1{fill:#ffdf00;}</style></defs><title>Asset 12</title><g id="Layer_2" data-name="Layer 2"><g id="Layer_15" data-name="Layer 15"><path d="M144.88,886.12h10.36V960H144.88Zm7,64h16.71q8.17,0,12.67-4.25t4.49-12V912.17q0-7.71-4.49-12T168.59,896H151.88v-9.85h16.41a34,34,0,0,1,15.18,3.1,21.56,21.56,0,0,1,9.6,9,29.06,29.06,0,0,1,3.3,14.32V933.5a29.06,29.06,0,0,1-3.3,14.32,21.58,21.58,0,0,1-9.63,9,34.31,34.31,0,0,1-15.2,3.1H151.88Z"/><path d="M230.19,886.12H239L266.24,960H255.07l-20.46-59.57L214.14,960H203Zm-14.68,47.79h38.85v9.85H215.51Z"/><path d="M277.42,886.12h10.35V960H277.42Zm5.07,0h41.39V896H282.49Zm0,32.91h35.8v9.85h-35.8Z"/><path d="M336.58,886.12h10.35V960H336.58Zm5.07,0H383V896H341.65Zm0,32.91h35.8v9.85h-35.8Z"/><path d="M405.54,957.34a23,23,0,0,1-9.12-9.55,30.38,30.38,0,0,1-3.22-14.29V912.58a30.45,30.45,0,0,1,3.22-14.3,23.06,23.06,0,0,1,9.12-9.54,29.07,29.07,0,0,1,27.21,0,23.06,23.06,0,0,1,9.12,9.54,30.45,30.45,0,0,1,3.22,14.3V933.5a30.38,30.38,0,0,1-3.22,14.29,23,23,0,0,1-9.12,9.55,29.07,29.07,0,0,1-27.21,0Zm21.65-8.89a13.8,13.8,0,0,0,5.39-5.84,19.2,19.2,0,0,0,1.9-8.75V912.22a19.25,19.25,0,0,0-1.9-8.76,13.86,13.86,0,0,0-5.39-5.84,16.81,16.81,0,0,0-16.09,0,13.86,13.86,0,0,0-5.39,5.84,19.25,19.25,0,0,0-1.9,8.76v21.64a19.2,19.2,0,0,0,1.9,8.75,13.8,13.8,0,0,0,5.39,5.84,16.74,16.74,0,0,0,16.09,0Z"/><path d="M460.84,886.12H471.2V960H460.84Zm7,64h16.71q8.18,0,12.67-4.25t4.5-12V912.17q0-7.71-4.5-12T484.55,896H467.84v-9.85h16.41a34,34,0,0,1,15.18,3.1,21.56,21.56,0,0,1,9.6,9,29.06,29.06,0,0,1,3.3,14.32V933.5a29.06,29.06,0,0,1-3.3,14.32,21.61,21.61,0,0,1-9.62,9A34.38,34.38,0,0,1,484.2,960H467.84Z"/><path d="M538.43,960H528.07V886.12h10.36Z"/><path d="M556.71,886.12h10.36V960H556.71Zm5.18,64h42.25V960H561.89Z"/><path d="M644.26,886.12h10.36V960H644.26Zm6.45,32.55h41v9.85h-41Zm35.49-32.55h10.36V960H686.2Z"/><path d="M725.66,957.34a23,23,0,0,1-9.11-9.55,30.38,30.38,0,0,1-3.23-14.29V912.58a30.45,30.45,0,0,1,3.23-14.3,23,23,0,0,1,9.11-9.54,29.09,29.09,0,0,1,27.22,0,23.12,23.12,0,0,1,9.12,9.54,30.57,30.57,0,0,1,3.22,14.3V933.5A30.5,30.5,0,0,1,762,947.79a23.08,23.08,0,0,1-9.12,9.55,29.09,29.09,0,0,1-27.22,0Zm21.66-8.89a13.78,13.78,0,0,0,5.38-5.84,19.2,19.2,0,0,0,1.91-8.75V912.22a19.25,19.25,0,0,0-1.91-8.76,13.84,13.84,0,0,0-5.38-5.84,16.83,16.83,0,0,0-16.1,0,13.84,13.84,0,0,0-5.38,5.84,19.25,19.25,0,0,0-1.91,8.76v21.64a19.2,19.2,0,0,0,1.91,8.75,13.78,13.78,0,0,0,5.38,5.84,16.76,16.76,0,0,0,16.1,0Z"/><path class="cls-1" d="M920.21,393.52q-46-52-97-81.53a15.56,15.56,0,0,0-23.41,13.41v.16a15.58,15.58,0,0,0,7.8,13.47Q844,360.12,878,394a15.55,15.55,0,0,1,.41,21.6,311.31,311.31,0,0,1-31.19,29.11,293.9,293.9,0,0,1-39.45,27.05,15.63,15.63,0,0,0-8,13.56v.29a15.56,15.56,0,0,0,23.32,13.46c62-35.3,96.16-83.4,98.22-86.35l0,0a15.54,15.54,0,0,0-1.1-19.19Z"/><path class="cls-1" d="M461.65,546.15c-12.43,0-22.21-6.54-30.07-11.8-3.65-2.44-7.42-5-10.1-5.83-3-1-7.49-1.16-12.28-1.37-9.3-.41-20.87-.91-30.59-8s-13.85-18-17.1-26.79c-1.58-4.24-3.21-8.63-5-11.09s-5.36-5.24-8.87-8c-7.38-5.82-16.57-13.07-20.36-24.73-3.66-11.27-.59-22.34,1.88-31.24,1.31-4.7,2.54-9.14,2.54-12.41s-1.23-7.71-2.54-12.41c-2.47-8.9-5.54-20-1.88-31.25,3.79-11.66,13-18.9,20.36-24.73,3.51-2.77,7.14-5.63,8.87-8s3.42-6.84,5-11.08c3.25-8.77,7.31-19.67,17.1-26.79s21.29-7.58,30.59-8c4.79-.21,9.3-.41,12.28-1.38,2.68-.87,6.45-3.39,10.1-5.82,7.86-5.26,17.64-11.8,30.07-11.8s22.21,6.54,30.07,11.8c3.65,2.43,7.42,4.95,10.1,5.82,3,1,7.49,1.17,12.27,1.38,9.31.4,20.89.9,30.6,8s13.85,18,17.1,26.78c1.58,4.25,3.21,8.64,5,11.09s5.36,5.24,8.87,8c7.38,5.83,16.57,13.07,20.36,24.73,3.66,11.28.59,22.35-1.88,31.25-1.3,4.7-2.54,9.13-2.54,12.41s1.24,7.71,2.54,12.41c2.47,8.9,5.54,20,1.88,31.24-3.79,11.66-13,18.91-20.36,24.73-3.51,2.77-7.14,5.63-8.87,8s-3.42,6.85-5,11.09c-3.25,8.76-7.31,19.66-17.1,26.79s-21.29,7.58-30.6,8c-4.78.21-9.29.4-12.27,1.37-2.68.87-6.45,3.39-10.1,5.83C483.86,539.61,474.08,546.15,461.65,546.15Zm0-251.34c-3,0-8.17,3.47-12.75,6.54-5.16,3.45-11,7.36-17.79,9.56-7,2.28-14.21,2.59-20.55,2.87-5.12.22-11.49.5-13.61,2s-4.44,7.62-6.23,12.45c-2.21,5.93-4.71,12.65-9,18.57s-9.84,10.25-14.77,14.14c-4.29,3.38-9.15,7.22-10,9.89-.76,2.35.92,8.42,2.27,13.29,1.72,6.2,3.67,13.22,3.67,20.74s-1.95,14.54-3.67,20.74c-1.35,4.87-3,10.94-2.27,13.29.87,2.67,5.73,6.5,10,9.89,4.93,3.88,10.51,8.28,14.77,14.14s6.8,12.63,9,18.56c1.79,4.84,4,10.86,6.22,12.45s8.5,1.82,13.62,2c6.34.27,13.53.59,20.55,2.86,6.78,2.21,12.63,6.12,17.79,9.57,4.58,3.06,9.78,6.54,12.75,6.54s8.17-3.48,12.75-6.54c5.16-3.45,11-7.36,17.79-9.57,7-2.27,14.21-2.59,20.55-2.86,5.12-.22,11.49-.5,13.62-2s4.43-7.61,6.22-12.45c2.21-5.92,4.71-12.64,9-18.56s9.84-10.26,14.77-14.14c4.29-3.39,9.15-7.22,10-9.89.76-2.35-.92-8.42-2.27-13.29-1.72-6.2-3.67-13.22-3.67-20.74s1.95-14.54,3.67-20.74c1.35-4.87,3-10.94,2.27-13.29-.87-2.67-5.73-6.51-10-9.89-4.93-3.88-10.51-8.29-14.77-14.14s-6.8-12.64-9-18.57c-1.79-4.83-4-10.85-6.22-12.45s-8.5-1.82-13.62-2c-6.34-.28-13.53-.59-20.55-2.87-6.78-2.2-12.63-6.11-17.79-9.56C469.82,298.28,464.62,294.81,461.65,294.81Z"/><path class="cls-1" d="M780.05,317.52c-.41-9,5.88-17.07,14-20.4a270.4,270.4,0,0,0-104.91-23.54c-2.82-.06-5.65-.06-8.48,0a30,30,0,0,1-5.6,12.56,111.51,111.51,0,0,1-20.49,20.31,249.65,249.65,0,0,1,34.14-1.68,239.58,239.58,0,0,1,93.25,21.17A24.28,24.28,0,0,1,780.05,317.52Z"/><path class="cls-1" d="M780.05,492.93a18.89,18.89,0,0,1,1.4-8,240.88,240.88,0,0,1-68.77,18.65c-50,5.71-101.67-4.61-154.48-30.7-4.8,4.69-8.55,8.33-9.38,9.16-1.09,1.09-7.17,7.05-14.1,13.85,51,26.86,101.42,40.39,150.92,40.39a269.49,269.49,0,0,0,31-1.78,273.63,273.63,0,0,0,77.67-21C786.05,510.32,780.46,502.18,780.05,492.93Z"/><path class="cls-1" d="M240.56,505.11c-1.63,0-3.27,0-4.92-.05a239.6,239.6,0,0,1-94-21.42,24,24,0,0,1,2.3,9.29c.4,8.74-5.46,16.52-13.16,20A270.07,270.07,0,0,0,235,536.21c1.8,0,3.61.06,5.42.06,4.74,0,9.51-.17,14.3-.42,6.32-13,14.49-25.32,26.15-34A254.41,254.41,0,0,1,240.56,505.11Z"/><path class="cls-1" d="M207.51,275.29a273.11,273.11,0,0,0-77.39,21A23,23,0,0,1,144,316.76a19,19,0,0,1-1.48,8.18,241.1,241.1,0,0,1,69-18.74c50.75-5.79,103.21,4.93,156.85,31.89q5.55-5.58,11.12-11.15c1-1,6.12-5.92,12.24-11.82C329.22,281.76,267.61,268.35,207.51,275.29Z"/><path class="cls-1" d="M689.31,535.87c-3.75-6.82-7.87-13.51-12.28-20.09a36.36,36.36,0,0,1-11.08,4c-10,1.71-17.59-1.35-26.27-5.8-1.61-.82-3.2-1.69-4.77-2.58a254.21,254.21,0,0,1,27.21,39.73c34.6,63,39,137.83,13.26,222.67-31.58-5.56-117.55-27.11-173.27-102.17-31.47-42.41-48.58-95.2-51.3-157.73-11.18,0-22-.06-31.22-.13,2.76,69.48,22,128.54,57.5,176.43,32,43.14,78,76.93,133,97.73,41.46,15.67,73.41,18.55,74.75,18.67l12.22,1.05L701,796C734,697.36,730.05,609.85,689.31,535.87Z"/><path class="cls-1" d="M447,119.64c-32-43.13-78-76.93-133-97.73C272.54,6.24,240.59,3.36,239.25,3.24L227,2.2l-3.89,11.63c-33,98.6-29.06,186.11,11.68,260.09q4.34,7.89,9.25,15.55l1.06-.21c8.52-1.45,15.32.54,22.5,3.93l.28.06c-.91-.54-.47-.48,1.34.18,1.4.07,2.77.09,3.29.13,4.47.35,8.94.51,13.4.94a252.79,252.79,0,0,1-23.83-35.61c-34.69-63-39.17-137.92-13.36-222.84A306.49,306.49,0,0,1,304,51.46c34.22,13.08,82.51,38.79,118.21,87,30.24,40.87,47.17,91.37,50.75,150.93,11.63,0,22.58.09,31.24.18C500.55,222.93,481.48,166.05,447,119.64Z"/><path class="cls-1" d="M719.7,85.18c-7.15-43.74-20.63-72.86-21.2-74.07L693.3,0l-12,2.45C579.39,23.18,505.57,70.34,461.87,142.61c-2.65,4.38-5.16,8.88-7.58,13.45a35,35,0,0,1,5.72,5.37c6.64,7.91,7.87,16.17,8.22,26a136.28,136.28,0,0,1-.33,14.16,254.8,254.8,0,0,1,20.63-42.91c37.22-61.54,99.86-102.88,186.31-123a305.69,305.69,0,0,1,14.29,55.57c5.78,36.17,7.65,90.85-16.28,145.89C652.77,283.38,618,323,568.94,355.68c.06,4.22.11,9.22.14,14.71,3.54,3.55,7.09,7.1,10.6,10.69-.49-.51,1.14,1.1,2.93,2.91,56.11-36.56,96-81.59,119-134.73C722.93,200,729.2,143.22,719.7,85.18Z"/><path class="cls-1" d="M469,636.35c-.81-9.31-3.13-18.17-5.54-27.16-1.22-4.54-2.18-9-2.92-13.48a259.1,259.1,0,0,1-25,55.53C398.26,712.69,335.65,754,249.29,774.06A305.92,305.92,0,0,1,235,718.49c-5.79-36.18-7.66-90.85,16.28-145.9,20.44-47,56.12-87.17,106.54-120.2,0-.23,0-.48,0-.72C349.14,443,340.32,434,336,429.48c-53.2,35.89-91.18,79.69-113.43,131.06-51.5,118.94.84,233.34,3.09,238.15l5.2,11.11,12-2.45c101.89-20.74,175.71-67.9,219.41-140.16,3.74-6.19,7.23-12.6,10.52-19.17A27.79,27.79,0,0,1,469,636.35Z"/><path class="cls-1" d="M3.92,393.52q46-52,97-81.53a15.55,15.55,0,0,1,23.4,13.41v.16a15.56,15.56,0,0,1-7.8,13.47q-36.4,21.09-70.37,55a15.54,15.54,0,0,0-.41,21.6A312.18,312.18,0,0,0,77,444.75,295.2,295.2,0,0,0,116.4,471.8a15.61,15.61,0,0,1,7.95,13.56v.29A15.56,15.56,0,0,1,101,499.11c-61.95-35.3-96.15-83.4-98.22-86.35v0a15.54,15.54,0,0,1,1.1-19.19Z"/></g></g></svg>